<svg width="186" height="69" viewBox="0 0 186 69" fill="none" xmlns="http://www.w3.org/2000/svg">
<path d="M36.7685 15.3143V7.65842C36.7685 6.81284 36.0827 6.12726 35.2366 6.12726H33.7046V1.53375C33.7046 0.68816 33.0188 0.0025787 32.1726 0.0025787C30.0038 0.0025787 26.6823 -0.163553 22.7832 2.1711C20.3595 1.45001 18.6453 1.53375 16.853 1.53375C16.0069 1.53375 15.321 2.21933 15.321 3.06492V6.12726H13.789C12.9429 6.12726 12.2571 6.81284 12.2571 7.65842V15.3143C12.2571 21.5501 16.9435 26.7123 22.9808 27.4681V47.4688C22.9808 48.3144 23.6667 49 24.5128 49C25.3589 49 26.0448 48.3144 26.0448 47.4688V42.1097H28.3427C32.9887 42.1097 36.7685 38.3319 36.7685 33.6883V31.3915C36.7685 30.546 36.0827 29.8604 35.2366 29.8604H31.4067C29.3715 29.8604 27.5026 30.5853 26.0448 31.7903V27.4674C32.0732 26.7212 36.7685 21.5847 36.7685 15.3143ZM33.7046 15.3143C33.7046 18.0393 32.4989 20.5004 30.5932 22.1879C30.6233 21.9422 30.6407 21.6926 30.6407 21.4389C30.6407 17.5614 29.1903 14.0165 26.8043 11.3159C28.8271 9.93633 31.2255 9.18959 33.7046 9.18959V15.3143ZM30.6407 3.06492V6.43617C30.3576 6.49378 30.0764 6.55952 29.7976 6.63292C28.8038 5.52101 27.6703 4.57369 26.4327 3.8082C27.7704 3.31938 29.1905 3.06492 30.6407 3.06492ZM18.3849 4.59609C21.4285 4.59609 24.3841 5.70685 26.6827 7.82915C25.9241 8.22046 25.1967 8.67665 24.5083 9.1939C22.7271 7.85547 20.6458 6.89562 18.3849 6.43512V4.59609ZM15.321 15.3143V9.18959C22.0788 9.18959 27.5767 14.6846 27.5767 21.4389C27.5767 23.15 26.163 24.5443 24.4323 24.4998C19.0503 24.367 15.321 20.0933 15.321 15.3143ZM31.4067 32.9227H33.7046V33.6883C33.7046 36.6433 31.2993 39.0474 28.3427 39.0474H26.0448V38.2818C26.0448 35.3268 28.4502 32.9227 31.4067 32.9227Z" fill="white"/>
<path d="M54.8738 22.7814H48.4157V26.8411H56.0438V30H44.3092V12.9655H56.0672V16.1361H48.4157V19.7278H54.8738V22.7814ZM64.3849 18.6281L67.1694 12.9655H71.8609L67.0992 21.4126L71.9896 30H67.2513L64.3849 24.2321L61.5185 30H56.7919L61.6706 21.4126L56.9206 12.9655H61.6004L64.3849 18.6281ZM77.7568 24.2204V30H73.6503V12.9655H80.4477C81.7503 12.9655 82.9007 13.2073 83.8991 13.6909C84.9052 14.1667 85.6813 14.8491 86.2273 15.7383C86.781 16.6197 87.0579 17.6219 87.0579 18.7451C87.0579 20.4064 86.4613 21.7362 85.2679 22.7346C84.0824 23.7252 82.4522 24.2204 80.3775 24.2204H77.7568ZM77.7568 21.0499H80.4477C81.2433 21.0499 81.8478 20.851 82.2611 20.4532C82.6823 20.0554 82.8929 19.4938 82.8929 18.7685C82.8929 17.9729 82.6784 17.3372 82.2494 16.8615C81.8205 16.3857 81.2355 16.1439 80.4945 16.1361H77.7568V21.0499ZM93.6792 26.8411H100.828V30H89.5727V12.9655H93.6792V26.8411ZM116.551 21.8337C116.551 23.4951 116.243 24.9653 115.627 26.2445C115.011 27.5236 114.133 28.5103 112.995 29.2044C111.864 29.8908 110.573 30.234 109.122 30.234C107.671 30.234 106.384 29.9025 105.261 29.2395C104.138 28.5688 103.261 27.6133 102.629 26.3732C102.005 25.133 101.677 23.7096 101.646 22.1028V21.1435C101.646 19.4743 101.95 18.0041 102.559 16.7328C103.175 15.4536 104.052 14.467 105.191 13.7728C106.337 13.0786 107.64 12.7315 109.099 12.7315C110.542 12.7315 111.828 13.0747 112.959 13.7611C114.09 14.4475 114.968 15.4263 115.592 16.6977C116.224 17.9612 116.543 19.4119 116.551 21.0499V21.8337ZM112.374 21.1201C112.374 19.4275 112.09 18.1445 111.52 17.2709C110.959 16.3896 110.152 15.9489 109.099 15.9489C107.039 15.9489 105.951 17.4932 105.834 20.5819L105.823 21.8337C105.823 23.5029 106.1 24.7859 106.653 25.6829C107.207 26.5798 108.03 27.0283 109.122 27.0283C110.159 27.0283 110.959 26.5876 111.52 25.7063C112.082 24.8249 112.367 23.5575 112.374 21.9039V21.1201ZM125.313 23.9865H123.091V30H118.984V12.9655H125.688C127.708 12.9655 129.287 13.414 130.426 14.311C131.565 15.2079 132.134 16.4754 132.134 18.1133C132.134 19.2989 131.892 20.2816 131.409 21.0616C130.933 21.8415 130.184 22.4733 129.163 22.9569L132.719 29.8245V30H128.32L125.313 23.9865ZM123.091 20.8159H125.688C126.468 20.8159 127.053 20.6131 127.443 20.2075C127.841 19.7941 128.039 19.2209 128.039 18.4877C128.039 17.7545 127.841 17.1812 127.443 16.7679C127.045 16.3467 126.46 16.1361 125.688 16.1361H123.091V20.8159ZM145.495 22.7814H139.036V26.8411H146.664V30H134.93V12.9655H146.688V16.1361H139.036V19.7278H145.495V22.7814ZM48.6848 49H44.59V31.9655H48.6848V49ZM66.0813 49H61.9982L55.9613 38.4002V49H51.8547V31.9655H55.9613L61.9865 42.5653V31.9655H66.0813V49ZM68.9939 49V31.9655H74.481C75.9863 31.9655 77.3395 32.3087 78.5407 32.9951C79.7418 33.6736 80.6778 34.6369 81.3486 35.8849C82.0271 37.125 82.3703 38.5172 82.3781 40.0616V40.8454C82.3781 42.4054 82.0466 43.8054 81.3837 45.0456C80.7285 46.2779 79.8003 47.2451 78.5992 47.947C77.4058 48.6412 76.0721 48.9922 74.598 49H68.9939ZM73.1004 35.1361V45.8411H74.5278C75.7055 45.8411 76.6103 45.4239 77.242 44.5893C77.8738 43.7469 78.1897 42.499 78.1897 40.8454V40.1084C78.1897 38.4626 77.8738 37.2225 77.242 36.3879C76.6103 35.5534 75.6899 35.1361 74.481 35.1361H73.1004ZM99.2248 40.8337C99.2248 42.4951 98.9167 43.9653 98.3005 45.2445C97.6844 46.5236 96.8069 47.5103 95.6682 48.2044C94.5372 48.8908 93.2464 49.234 91.7956 49.234C90.3449 49.234 89.0579 48.9025 87.9348 48.2395C86.8116 47.5688 85.9342 46.6133 85.3024 45.3732C84.6784 44.133 84.3508 42.7096 84.3196 41.1028V40.1435C84.3196 38.4743 84.6238 37.0041 85.2322 35.7328C85.8484 34.4536 86.7258 33.467 87.8646 32.7728C89.0111 32.0786 90.3137 31.7315 91.7722 31.7315C93.2152 31.7315 94.5021 32.0747 95.6331 32.7611C96.764 33.4475 97.6415 34.4263 98.2654 35.6977C98.8972 36.9612 99.217 38.4119 99.2248 40.0499V40.8337ZM95.0481 40.1201C95.0481 38.4275 94.7634 37.1445 94.194 36.2709C93.6324 35.3896 92.8252 34.9489 91.7722 34.9489C89.7131 34.9489 88.625 36.4932 88.5081 39.5819L88.4964 40.8337C88.4964 42.5029 88.7732 43.7859 89.327 44.6829C89.8808 45.5798 90.7037 46.0283 91.7956 46.0283C92.833 46.0283 93.6324 45.5876 94.194 44.7063C94.7556 43.8249 95.0403 42.5575 95.0481 40.9039V40.1201ZM115.884 49H111.801L105.764 38.4002V49H101.658V31.9655H105.764L111.789 42.5653V31.9655H115.884V49ZM129.361 41.7814H122.903V45.8411H130.531V49H118.797V31.9655H130.555V35.1361H122.903V38.7278H129.361V41.7814ZM141.306 44.4723C141.306 43.8717 141.092 43.4037 140.663 43.0683C140.241 42.733 139.497 42.3859 138.428 42.0271C137.359 41.6683 136.486 41.3212 135.807 40.9858C133.6 39.9017 132.496 38.4119 132.496 36.5166C132.496 35.5729 132.769 34.7422 133.315 34.0246C133.869 33.2993 134.649 32.7377 135.655 32.3399C136.661 31.9343 137.792 31.7315 139.048 31.7315C140.273 31.7315 141.368 31.9499 142.336 32.3867C143.311 32.8235 144.067 33.4475 144.605 34.2586C145.144 35.062 145.413 35.9823 145.413 37.0197H141.318C141.318 36.3255 141.103 35.7874 140.674 35.4052C140.253 35.023 139.68 34.8319 138.954 34.8319C138.221 34.8319 137.64 34.9957 137.211 35.3233C136.79 35.6431 136.579 36.0525 136.579 36.5517C136.579 36.9885 136.813 37.3863 137.281 37.7451C137.749 38.0961 138.572 38.4626 139.75 38.8448C140.928 39.2192 141.895 39.6248 142.652 40.0616C144.492 41.1223 145.413 42.5848 145.413 44.4489C145.413 45.9386 144.851 47.1086 143.728 47.9587C142.605 48.8089 141.064 49.234 139.107 49.234C137.726 49.234 136.474 48.9883 135.351 48.4969C134.236 47.9977 133.393 47.3192 132.824 46.4612C132.262 45.5954 131.982 44.601 131.982 43.4778H136.1C136.1 44.3904 136.334 45.0651 136.802 45.5018C137.278 45.9308 138.046 46.1453 139.107 46.1453C139.785 46.1453 140.319 46.001 140.709 45.7124C141.107 45.4161 141.306 45.0027 141.306 44.4723ZM152.209 49H148.115V31.9655H152.209V49ZM165.265 45.8177H159.638L158.655 49H154.268L160.515 31.9655H164.376L170.671 49H166.26L165.265 45.8177ZM160.621 42.6472H164.283L162.446 36.7389L160.621 42.6472Z" fill="white"/>
<rect opacity="0.7" x="19.0098" y="36" width="166.086" height="20" fill="url(#paint0_linear_12_352)"/>
<defs>
<linearGradient id="paint0_linear_12_352" x1="77.14" y1="37.4815" x2="77.14" y2="52.6667" gradientUnits="userSpaceOnUse">
<stop stop-color="#018495" stop-opacity="0"/>
<stop offset="1" stop-color="#018394"/>
</linearGradient>
</defs>
</svg>
